<svg width="512" height="313.94" xmlns="http://www.w3.org/2000/svg" clip-rule="evenodd" fill-rule="evenodd" image-rendering="optimizeQuality" text-rendering="geometricPrecision" shape-rendering="geometricPrecision">

 <g>
  <title>Layer 1</title>
  <g stroke="null" id="svg_1" fill-rule="nonzero">
   <path stroke="null" id="svg_2" d="m580.19821,-104.0976c0,-22.155 16.07227,-39.72735 36.33156,-39.72735c20.27578,0 35.1282,17.02836 35.1282,39.72735c0,22.6825 -15.00078,40.25485 -35.1282,40.25485c-20.12742,0 -36.33156,-17.83609 -36.33156,-40.25485zm-69.56407,61.86586l28.36961,0l0,-123.46797l-28.36961,0l0,123.46797zm-4.46727,-164.66243c0,10.66539 8.6543,19.3032 18.7757,19.3032c10.13789,0 18.51195,-8.63781 18.51195,-19.3032c0,-9.87414 -8.37406,-18.2482 -18.51195,-18.2482c-10.12141,0 -18.7757,8.37406 -18.7757,18.2482zm-111.3025,102.51633c0,-22.155 16.3525,-39.44711 37.28766,-39.44711c20.93516,0 37.27117,17.29211 37.27117,39.44711s-16.46789,40.53508 -37.27117,40.53508c-20.80328,-0.14836 -37.28766,-18.09984 -37.28766,-40.53508zm-28.91359,0c0,37.02391 29.17734,66.20125 66.20125,66.20125c37.00742,0 66.18477,-29.17734 66.18477,-66.20125c0,-37.00742 -28.63336,-65.11328 -66.18477,-65.11328c-37.55141,-0.13188 -66.20125,28.23774 -66.20125,65.11328zm-76.71828,62.1461l28.36961,0l0,-64.70117c0,-25.66617 13.63258,-37.02391 36.33156,-37.02391c4.18703,0 7.43445,0.28023 10.40164,0.95609l0,-24.99031c-2.96719,-0.95609 -8.11031,-1.76383 -13.78094,-1.76383c-38.49102,0 -61.19,24.18258 -61.19,62.6736l0,64.84953l-0.13188,0zm-113.87407,-61.86586c0,-22.155 16.07227,-39.72735 36.33156,-39.72735s35.1282,17.02836 35.1282,39.72735c0,22.6825 -15.00078,40.25485 -35.1282,40.25485c-20.12742,0 -36.33156,-17.83609 -36.33156,-40.25485zm-28.91359,0c0,35.78758 28.63336,65.92102 62.40985,65.92102c14.04469,0 26.88602,-5.68711 34.58422,-15.00078l1.21984,0l0,11.0775l28.36961,0l0,-192.90016l-28.36961,0l0,79.43821l-1.21984,0c-7.43445,-8.91805 -20.2593,-14.06117 -34.58422,-14.06117c-33.90836,0 -62.40985,29.8532 -62.40985,65.52539zm-124.40758,61.86586l28.36961,0l0,-72.2675c0,-17.29211 11.62148,-29.3257 27.69375,-29.3257s27.69375,12.16547 27.69375,29.3257l0,72.2675l28.35313,0l0,-72.2675c0,-30.13344 -23.90234,-55.12375 -56.04688,-55.12375c-32.16102,0 -56.06336,24.99031 -56.06336,55.12375l0,72.2675zm-130.35844,-74.03133l30.66094,-87.66391l1.48359,0l30.67742,87.66391l-62.82196,0zm-57.67883,74.03133l32.14453,0l16.07227,-45.92547l82.00977,0l16.07227,45.92547l31.88078,0l-71.32789,-192.76829l-35.52383,0l-71.32789,192.76829zm779.82636,4.05516c14.06117,0 26.88602,-5.68711 34.58422,-15.00078l1.21984,0l0,11.0775l28.36961,0l0,-192.90016l-28.36961,0l0,79.43821l-1.21984,0c-7.41797,-8.91805 -20.2593,-14.06117 -34.56774,-14.06117c-34.04024,0 -62.40985,29.8532 -62.40985,65.37703c0,35.67219 28.63336,66.06938 62.40985,66.06938l-0.01648,0z" fill="#202124"/>
   <path stroke="null" id="svg_3" d="m478.07751,272.63632c-0.13188,-0.93961 -0.26375,-1.74734 -0.41211,-2.70344c-0.93961,-5.53875 -2.02758,-11.06102 -3.3793,-16.59977a207.1097,207.1097 0 0 0 -8.76969,-27.82563c-2.98367,-7.71469 -6.34648,-15.13266 -10.13789,-22.30336c-4.86289,-9.1818 -10.26977,-18.09984 -16.33602,-26.60578c-7.43445,-10.40164 -15.67664,-19.99555 -24.59469,-29.04547c-3.77492,-3.77492 -7.6982,-7.41797 -11.75336,-10.79727c-8.76969,-7.56633 -18.09984,-14.4568 -27.9575,-20.53953c0.13188,-0.13188 0.13188,-0.26375 0.26375,-0.41211c4.46727,-7.83008 9.04992,-15.52828 13.51719,-23.35836c4.45078,-7.56633 8.76969,-15.13266 13.23695,-22.83086c3.09906,-5.40688 6.34648,-10.94563 9.44555,-16.3525c0.82422,-1.35172 1.35172,-2.55508 1.76383,-4.05516c1.21984,-3.77492 1.35172,-7.83008 0.26375,-11.605c-0.26375,-0.95609 -0.5275,-1.8957 -0.93961,-2.70344c-0.41211,-0.95609 -0.80773,-1.76383 -1.35172,-2.57156c-1.61547,-2.83531 -4.05516,-5.275 -7.15422,-7.02234c-2.70344,-1.61547 -5.67063,-2.57156 -8.78617,-2.83531c-1.35172,-0.13188 -2.57156,-0.13188 -3.92328,0c-1.07148,0.13188 -2.15945,0.26375 -3.09906,0.54398c-3.77492,0.93961 -7.15422,2.96719 -9.85766,5.93438c-0.95609,1.08797 -1.8957,2.30781 -2.57156,3.51117c-3.09906,5.40688 -6.34648,10.94563 -9.44555,16.3525l-13.23695,22.83086c-4.46727,7.83008 -9.06641,15.52828 -13.51719,23.35836c-0.54398,0.82422 -0.93961,1.76383 -1.48359,2.57156c-0.67586,-0.26375 -1.35172,-0.54398 -2.02758,-0.80773c-24.85844,-9.46203 -51.74446,-14.58867 -79.96571,-14.58867l-2.30781,0a225.09415,225.09415 0 0 0 -71.59164,12.42922c-2.55508,0.93961 -5.12664,1.8957 -7.6982,2.83531c-0.39563,-0.80773 -0.93961,-1.61547 -1.35172,-2.43969c-4.45078,-7.83008 -9.04992,-15.52828 -13.5007,-23.35836c-4.46727,-7.56633 -8.78617,-15.13266 -13.23695,-22.83086c-3.11555,-5.40688 -6.34648,-10.94563 -9.46203,-16.3525c-0.80773,-1.35172 -1.61547,-2.4232 -2.57156,-3.51117a20.27578,20.27578 0 0 0 -9.85766,-5.93438c-1.07148,-0.28023 -2.15945,-0.41211 -3.09906,-0.54398c-1.35172,-0.13188 -2.57156,-0.13188 -3.92328,0c-3.09906,0.26375 -6.08273,1.21984 -8.76969,2.83531a20.89395,20.89395 0 0 0 -7.1707,7.02234c-0.54398,0.80773 -0.93961,1.61547 -1.35172,2.57156c-0.39563,0.93961 -0.67586,1.74734 -0.93961,2.70344c-0.95609,3.77492 -0.95609,7.6982 0.26375,11.605c0.41211,1.35172 1.08797,2.70344 1.76383,4.05516c3.09906,5.40688 6.34648,10.94563 9.44555,16.3525c4.46727,7.56633 8.78617,15.13266 13.23695,22.83086c4.46727,7.83008 9.04992,15.52828 13.51719,23.35836l0.13188,0.14836c-9.04992,5.67063 -17.68774,11.88523 -25.92992,18.7757c-4.86289,4.05516 -9.59391,8.37406 -14.06117,12.82484c-9.04992,8.91805 -17.14375,18.64383 -24.5782,29.04547c-6.08273,8.50594 -11.48961,17.29211 -16.33602,26.60578c-3.79141,7.1707 -7.1707,14.58867 -10.13789,22.28688c-3.51117,9.04992 -6.47836,18.38008 -8.78617,27.84211c-1.35172,5.39039 -2.4232,10.92914 -3.3793,16.59977c-0.13188,0.95609 -0.26375,1.76383 -0.39563,2.70344c-0.54398,3.24742 -0.95609,6.49484 -1.35172,9.87414l446.44635,0c0,-3.3793 -0.39563,-6.62672 -0.80773,-9.87414z" fill="#34A853"/>
   <path stroke="null" id="svg_4" d="m372.16539,220.62812c8.91805,-5.93438 10.26977,-19.71531 2.83531,-30.66094c-7.28609,-11.0775 -20.52305,-15.11617 -29.44109,-9.1818c-8.91805,5.95086 -10.26977,19.71531 -2.83531,30.66094c7.30258,11.0775 20.53953,15.13266 29.44109,9.1818zm-202.34571,-9.04992c7.28609,-11.0775 6.08273,-24.71008 -2.83531,-30.66094c-8.91805,-5.93438 -22.155,-1.87922 -29.45758,9.19828c-7.28609,11.06102 -6.06625,24.71008 2.83531,30.66094c8.91805,5.93438 22.02313,1.74734 29.45758,-9.19828z" fill="#202124"/>
  </g>
  <rect stroke="#000" id="svg_5" height="24" width="521.00006" y="-24.53004" x="-1.00003" fill="#fff"/>
 </g>
</svg>